<svg width="18" height="18" viewBox="0 0 18 18" fill="none" xmlns="http://www.w3.org/2000/svg">
<path fill-rule="evenodd" clip-rule="evenodd" d="M9 18C13.9706 18 18 13.9706 18 9C18 4.02944 13.9706 0 9 0C4.02944 0 0 4.02944 0 9C0 13.9706 4.02944 18 9 18Z" fill="black" fill-opacity="0.05"/>
<path fill-rule="evenodd" clip-rule="evenodd" d="M9.01018 13.4118C10.6567 13.4118 12.5913 13.2955 12.9365 12.3893C13.0434 12.1123 12.9954 11.6649 12.9375 11.4925C12.6951 10.7622 11.6738 10.3083 11.1254 10.0637C11.0858 10.0459 11.0344 10.0267 10.9769 10.0045L10.9265 9.9857C10.6147 9.8694 10.1437 9.69392 10.0764 9.43635C9.98204 9.07103 10.2127 8.76762 10.4409 8.4673C10.5299 8.34997 10.6144 8.23846 10.678 8.12387C10.9316 7.66688 11.1193 7.07682 11.1558 6.6212C11.2217 5.79821 11.0276 5.11204 10.5948 4.63794C10.2147 4.22029 9.67804 4 9.0423 4C8.93274 4 8.82047 4.00684 8.70922 4.0195C7.64706 4.14298 6.94099 4.92561 6.8666 6.06091C6.8064 6.95231 7.0536 7.76881 7.62136 8.55692C7.65653 8.60686 7.69407 8.65372 7.72788 8.69887C7.87059 8.88153 7.99368 9.0399 7.97 9.28619C7.93923 9.60396 7.62677 9.72505 7.37586 9.82083L7.27408 9.86119C6.9721 9.98365 6.64409 10.1673 6.46317 10.2689L6.41887 10.2936C5.83521 10.6206 5.20015 11.0132 5.05779 11.5445C4.9577 11.9187 4.98745 12.2265 5.14842 12.4858C5.45276 12.9763 6.17878 13.1624 6.69819 13.2595C7.45262 13.4005 8.2872 13.4118 9.01018 13.4118Z" fill="#8F999C"/>
</svg>
